<svg viewBox="0 0 24 24" fill="none" xmlns="http://www.w3.org/2000/svg">
<path fill-rule="evenodd" clip-rule="evenodd" d="M15.75 4.5H8.25C7.98054 4.5 7.5 4.79515 7.5 5.5H16.5C16.5 4.79515 16.0195 4.5 15.75 4.5ZM18 5.5H21.3333C22.8061 5.5 24 6.69391 24 8.16667V18.8333C24 20.3061 22.8061 21.5 21.3333 21.5H2.66667C1.19391 21.5 0 20.3061 0 18.8333V8.16667C0 6.69391 1.19391 5.5 2.66667 5.5H6C6 4.11929 7.00736 3 8.25 3H15.75C16.9926 3 18 4.11929 18 5.5ZM21.3333 7H2.66667C2.02233 7 1.5 7.52233 1.5 8.16667V18.8333C1.5 19.4777 2.02233 20 2.66667 20H21.3333C21.9777 20 22.5 19.4777 22.5 18.8333V8.16667C22.5 7.52233 21.9777 7 21.3333 7ZM12 17.5C14.2091 17.5 16 15.7091 16 13.5C16 11.2909 14.2091 9.5 12 9.5C9.79086 9.5 8 11.2909 8 13.5C8 15.7091 9.79086 17.5 12 17.5ZM17.5 13.5C17.5 16.5376 15.0376 19 12 19C8.96243 19 6.5 16.5376 6.5 13.5C6.5 10.4624 8.96243 8 12 8C15.0376 8 17.5 10.4624 17.5 13.5Z" fill="currentColor"/>
</svg>
